<?xml version="1.0" encoding="UTF-8"?>
<!-- Created with Inkscape (http://www.inkscape.org/) -->
<svg width="100" height="100" version="1.1" viewBox="0 0 26 26" xmlns="http://www.w3.org/2000/svg">
 <g transform="matrix(.046 0 0 .039 -104 -120)">
  <path d="m2549 3088 233 397-72 136-164 95-163-97-69-137z" fill="#fc0"/>
  <path d="m2549 3088-0.21 127 154 261 80 8.6z" fill="#fd5"/>
  <path d="m2656 3566 55 55 72-136-80-8.6z" fill="#ffd42a"/>
  <path d="m2547 3628-0.64 88 164-95-55-55z" fill="#d4aa00"/>
  <path d="m2440 3565-56 55 163 97 0.64-88z" fill="#a80"/>
  <path d="m2394 3474-80 7.8 69 137 56-55z" fill="#d4aa00"/>
  <path d="m2549 3088-235 394 80-7.8 155-260z" fill="#fc0"/>
  <path d="m2549 3214 154 261-47 90-108 63-107-64-46-90z" fill="#fea"/>
  <path d="m2452 3379a152 158 0 0 0 139 95 152 158 0 0 0 92-33l20 33-46 90-107 64-108-63-47-90z" fill="#ffe680"/>
  <path d="m2549 3088-235 394 69 137 163 97 164-95 72-136zm-0.21 127 154 261-47 90-108 63-107-64-46-90z" fill="none" stroke="#2b2200" stroke-width="5.7"/>
  <path d="m2557 3265a14 9.9 80 0 1 5 1.6 14 9.9 80 0 1 6.4 18 12 8.2 82 0 1 2.8 1.2 12 8.2 82 0 1 4.9 16 12 8.2 82 0 1-11 5.4 12 8.2 82 0 1-5.3-14 14 9.9 80 0 1-4.9-1.6 14 9.9 80 0 1-6.1-19 14 9.9 80 0 1 8-7.7z" fill="#fff" opacity=".77"/>
  <ellipse transform="matrix(-.71 .7 .52 .85 0 0)" cx="-486" cy="4333" rx="14" ry="39" fill="#fff" opacity=".77"/>
  <path d="m2549 3124-213 356 63 124 147 87 149-86 65-123zm0.35 61 173 293-53 101-122 70-121-72-51-101z" fill="#fff6d5" opacity=".5"/>
 </g>
</svg>
