<svg width="289.08258" height="319.05963" viewBox="0 0 76.486433 84.417861" version="1.1" id="svg5" xmlns:xlink="http://www.w3.org/1999/xlink" xmlns="http://www.w3.org/2000/svg">
  <defs id="defs2">
    <linearGradient xlink:href="#linearGradient24341" id="linearGradient24878" gradientUnits="userSpaceOnUse" x1="40" y1="-2.7765839" x2="40" y2="18.533834"/>
    <linearGradient id="linearGradient24341">
      <stop offset="0" id="stop24337" stop-color="#fff" stop-opacity="1"/>
      <stop offset="1" id="stop24339" stop-color="#fff" stop-opacity="0"/>
    </linearGradient>
    <linearGradient xlink:href="#linearGradient24341" id="linearGradient27777" gradientUnits="userSpaceOnUse" x1="40" y1="-2.7765839" x2="40" y2="18.533834" gradientTransform="translate(-20.661583)"/>
    <linearGradient xlink:href="#linearGradient24341" id="linearGradient27800" gradientUnits="userSpaceOnUse" x1="40" y1="-2.7765839" x2="40" y2="18.533834" gradientTransform="translate(20.661587)"/>
    <linearGradient xlink:href="#linearGradient24341" id="linearGradient30023" gradientUnits="userSpaceOnUse" gradientTransform="translate(0 15)" x1="52.250263" y1="-18.912458" x2="51.745426" y2="31.949511"/>
    <linearGradient xlink:href="#linearGradient24341" id="linearGradient32114" gradientUnits="userSpaceOnUse" gradientTransform="translate(18.426421 15)" x1="52.250263" y1="-18.912458" x2="51.745426" y2="31.949511"/>
    <linearGradient xlink:href="#linearGradient24341" id="linearGradient33069" gradientUnits="userSpaceOnUse" gradientTransform="matrix(-1 0 0 1 61.57358 15)" x1="52.250263" y1="-18.912458" x2="51.745426" y2="31.949511"/>
    <linearGradient xlink:href="#linearGradient24341" id="linearGradient31694" gradientUnits="userSpaceOnUse" gradientTransform="matrix(-1 0 0 1 80.000006 15)" x1="52.250263" y1="-18.912458" x2="51.745426" y2="31.949511"/>
    <linearGradient xlink:href="#linearGradient24341" id="linearGradient31905" gradientUnits="userSpaceOnUse" gradientTransform="matrix(-1 0 0 1 68.515043 15)" x1="48.968845" y1="-49.707298" x2="51.366802" y2="29.046717"/>
    <linearGradient xlink:href="#linearGradient24341" id="linearGradient32078" gradientUnits="userSpaceOnUse" gradientTransform="translate(11.484963 15)" x1="48.968845" y1="-49.707298" x2="51.366802" y2="29.046717"/>
    <linearGradient xlink:href="#linearGradient24341" id="linearGradient28839" gradientUnits="userSpaceOnUse" gradientTransform="translate(25)" x1="40" y1="-2.7765839" x2="40" y2="18.533834"/>
    <linearGradient xlink:href="#linearGradient24341" id="linearGradient29987" gradientUnits="userSpaceOnUse" gradientTransform="matrix(-1 0 0 1 55.000003 -5e-7)" x1="40" y1="-2.7765839" x2="40" y2="18.533834"/>
    <style id="style1052">
    </style>
    <path id="rect13454" d="M283.32455 197.74898h314.54807v305.29666H283.32455z"/>
  </defs>
  <g id="layer1" transform="translate(-156.05253 -45.787657)">
    <g id="g26746" transform="translate(-2.1635438 -3.2453151)" fill-opacity="1" fill-rule="evenodd" stroke="#4358d6" stroke-width=".705556" stroke-miterlimit="4" stroke-dasharray="none" stroke-opacity="1">
      <path id="path925" d="M196.45929 49.401656l-16.90284 5.13276c-.25489 3.08945-1.92084 5.85322-4.46278 7.40368-2.54212 1.55064-5.64024 1.69291-8.30001.38163l-3.00679-1.48234-5.13845 6.36267c2.62608 4.20193 3.8913 9.1905 3.60572 14.2167-.31185 5.48658.24636 10.88037 1.57174 16.00006 1.15307 4.246264 3.07023 10.229424 8.05171 17.111874 4.22786 5.80902 9.70373 10.66339 16.16309 14.07563l8.34787 4.44753 8.48935-4.44753c6.43854-3.40095 11.90048-8.23558 16.12253-14.02008 5.22773-7.44347 5.90336-9.58589 7.97057-17.168204 1.19418-5.35154 1.94426-11.06418 1.69344-15.99928-.28557-5.0262.97982-10.01477 3.60573-14.2167l-5.13871-6.36267-3.00628 1.48234c-2.65994 1.31128-5.75815 1.16901-8.30026-.38163-2.54195-1.55046-4.20782-4.31423-4.46252-7.40368z" fill="#beddff"/>
      <path id="path925-9" d="M196.4593 55.734169l11.98195 3.6388s3.36743 5.96693 6.33604 7.77756c3.75657 2.29165 8.29831 2.7452 12.384 1.29088-1.8004 4.24709-2.60343 8.88646-2.33991 13.52372.31449 5.53576-.45568 11.06262-2.03919 16.33297-3.37579 10.471591-7.94121 15.184621-12.57309 19.744421-2.34065 2.29743-5.15351 4.06586-8.06463 5.60379l-5.75592 2.71562-4.00756-1.86709-1.60688-.84853c-2.91112-1.53793-5.85391-3.1809-8.06463-5.60379-6.17805-6.771-8.65217-9.22605-12.31113-18.893171-1.83079-5.50033-2.63272-11.34994-2.30115-17.18422.26335-4.63726-.53934-9.27663-2.33991-13.52372 4.08569 1.45432 8.62744 1.00077 12.38401-1.29088 2.96843-1.81063 5.16359-4.58104 6.33605-7.77756z" fill="#f7fda9"/>
    </g>
    <g aria-label="VIP" transform="matrix(1.68 0 0 1.68 -286.95804 -51.321252)" id="text1815" style="line-height:1.25;font-variation-settings:normal;-inkscape-stroke:none" font-size="10.5833" opacity="1" fill="#ff0391" fill-opacity="1" fill-rule="nonzero" stroke="#4358d6" stroke-width=".503969" stroke-linecap="butt" stroke-linejoin="miter" stroke-miterlimit="4" stroke-dasharray="none" stroke-dashoffset="0" stroke-opacity="1" font-weight="700">
      <path d="M282.224 68.337776l-.97247 8.132334-2.16322.508038-4.49093-6.849245 2.02739-.476137 3.04691 4.836833.57524-5.687501z" style="-inkscape-font-specification:'sans-serif, Bold';font-variation-settings:normal;-inkscape-stroke:none" id="path29248" vector-effect="none" stop-color="#000" stop-opacity="1"/>
      <path d="M289.29168 75.936056l-4.50616-.0075.002-1.364252 1.2609.0021.008-4.966082-1.2609-.0021.002-1.364252 4.50617.0075-.002 1.364251-1.2609-.0021-.008 4.966083 1.2609.0021z" style="-inkscape-font-specification:'sans-serif, Bold';font-variation-settings:normal;-inkscape-stroke:none" id="path29250" vector-effect="none" stop-color="#000" stop-opacity="1"/>
      <path d="M298.30219 72.359593q-.11685.50338-.4052.94573-.28718.437316-.69033.688566-.55083.338984-1.15712.436978-.60127.09916-1.42178-.09129l-1.20307-.279253-.56669 2.441393-1.93298-.448676 1.73979-7.495329 3.18136.738446q.7148.165916 1.17387.405098.46527.235317.78555.569606.3841.402152.5132.920178.13412.519194-.0166 1.168553zm-2.00894-.418561q.0736-.317129-.045-.583377-.1174-.271281-.32289-.414469-.27398-.190916-.55857-.267584-.28343-.0817-.76164-.192702l-.33223-.07712-.52112 2.245075.55372.128526q.49332.114506.82447.127711.33618.01437.5947-.1166.22364-.11785.35559-.320643.13815-.206658.21293-.528821z" style="-inkscape-font-specification:'sans-serif, Bold';font-variation-settings:normal;-inkscape-stroke:none" id="path29252" vector-effect="none" stop-color="#000" stop-opacity="1"/>
    </g>
    <g id="g883" transform="matrix(.32 0 0 .32 181.49575 79.301053)" display="inline" stroke-linejoin="round">
      <path id="rect20268" d="M15 0h50l15 15H0z" fill="#57e4e4" stroke-width=".30883"/>
      <path id="rect20268-3" d="M40 60l40-45H0z" fill="#57e4e4" stroke-width=".30883"/>
      <path id="rect20268-6" d="M19.338417 0h41.32317l12.396952 15H6.9414644z" fill="#8be4e4" fill-opacity="1" stroke-width=".280757"/>
      <path id="rect20268-3-3" d="M40.000003 60l33.058536-45H6.9414644z" fill="#8be4e4" fill-opacity="1" stroke-width=".280757"/>
      <path id="rect20268-6-4" d="M26.516519 3e-7h26.96697L61.573579 15H18.426427z" fill="#a7e4e4" fill-opacity="1" stroke-width=".226804"/>
      <path id="rect20268-3-3-3" d="M40.000004 60l21.573575-45H18.426427z" fill="#a7e4e4" fill-opacity="1" stroke-width=".226804"/>
      <path id="rect22834" d="M40 0l15.853919 5.1191577L40 15 24.146081 5.1191577z" fill="url(#linearGradient24878)" fill-opacity="1" stroke-width=".46832"/>
      <path id="rect22834-2" d="M19.338417 0l4.807664 5.1191577L6.9414644 15z" fill="url(#linearGradient27777)" fill-opacity="1" stroke-width=".46832"/>
      <path id="rect22834-6" d="M60.661587 0l12.396952 15-17.20462-9.8808423z" fill="url(#linearGradient27800)" fill-opacity="1" stroke-width=".46832"/>
      <path id="rect22834-6-5" d="M61.573579 15l-9.302835 19.417293L40 15z" fill="url(#linearGradient30023)" fill-opacity="1" stroke-width=".46832"/>
      <path id="rect22834-6-5-4" d="M80 15L54.100765 40.790814 73.058542 15z" fill="url(#linearGradient32114)" fill-opacity="1" stroke-width=".46832"/>
      <path id="rect22834-6-5-4-1" d="M.0000064 15L25.899241 40.790814 6.9414644 15z" fill="url(#linearGradient33069)" fill-opacity="1" stroke-width=".46832"/>
      <path id="rect22834-6-5-5" d="M18.426427 15l9.302835 19.417293L40.000006 15z" fill="url(#linearGradient31694)" fill-opacity="1" stroke-width=".46832"/>
      <path id="rect22834-6-5-5-0" d="M6.9414644 15L27.729262 34.417293 18.426427 15z" fill="url(#linearGradient31905)" fill-opacity="1" stroke-width=".46832"/>
      <path id="rect22834-6-5-5-0-4" d="M73.058542 15L52.270744 34.417293 61.573579 15z" fill="url(#linearGradient32078)" fill-opacity="1" stroke-width=".46832"/>
      <path id="rect22834-6-2" d="M77.873253 12.620836L73.058539 15l-.016618-6.9543859z" fill="url(#linearGradient28839)" fill-opacity="1" stroke-width=".46832"/>
      <path id="rect22834-6-2-1" d="M2.1267504 12.620836L6.9414644 15l.01662-6.954386z" fill="url(#linearGradient29987)" fill-opacity="1" stroke-width=".46832"/>
      <path id="path33098" transform="matrix(.26458 0 0 .26458 -20.296826 -32.00584)" d="M167.97319 140.31496l-17.99838 11.56914 7.87952 20.13664-11.56915-17.99839-20.13664 7.87952 17.99839-11.56914-7.87952-20.13664 11.56914 17.99839z" fill="#fff" fill-opacity="1" fill-rule="nonzero" stroke="none" stroke-width="1" stroke-miterlimit="4" stroke-dasharray="none" stroke-opacity="1"/>
      <path id="path33098-0" transform="matrix(.4615 0 0 .4615 -6.1170396 -54.283818)" d="M167.97319 140.31496l-17.93161 11.24959 13.74674 16.09731-16.24017-13.57766-11.06147 18.04826 7.89463-19.64105-20.58311-4.94286 21.11933 1.43882-1.65959-21.10312 5.15783 20.53029z" fill="#fff" fill-opacity="1" fill-rule="nonzero" stroke="none" stroke-width="1" stroke-miterlimit="4" stroke-dasharray="none" stroke-opacity="1"/>
    </g>
    <g aria-label="gem" transform="matrix(1.44 0 0 1.44 -219.65348 -86.258931)" id="text12106" style="line-height:1.25;-inkscape-font-specification:'sans-serif, Bold';font-variation-settings:normal;-inkscape-stroke:none" font-weight="700" font-size="10.5833" opacity="1" fill="#ff0391" fill-opacity="1" stroke="#4358d6" stroke-width=".587964" stroke-linecap="butt" stroke-linejoin="miter" stroke-miterlimit="4" stroke-dasharray="none" stroke-dashoffset="0" stroke-opacity="1">
      <path d="M282.18997 134.9507q-.21061.78886-.57924 1.26809-.36864.47924-.85436.67582-.48706.20158-1.09721.1831-.6065-.0122-1.32546-.20411-.58415-.15596-1.13466-.37781-.54552-.22053-.93326-.43102l.37456-1.40296.21968.0587q.29487.21779.74119.44927.44498.23647.81944.33644.49928.1333.83415.12108.33854-.006.54862-.13166.19743-.11845.33398-.34942.13654-.23098.22985-.58047l.028-.10485q-.39517.17797-.83092.22744-.43575.0495-.92005-.0798-1.17829-.31458-1.62808-1.19417-.44979-.87959-.0632-2.32749.18528-.69399.51463-1.14627.32935-.45229.7838-.7321.42283-.26152.95412-.32827.53628-.0654 1.04055.0692.45434.1213.79448.32978.34647.20482.60037.47585l.13155-.23231 1.74247.46521zm-1.49748-1.60323l.67848-2.54131q-.13744-.10623-.35279-.20116-.21401-.0999-.39375-.14792-.70897-.18928-1.17275.12549-.46246.30977-.65707 1.03871-.21594.80883-.002 1.20834.21925.40085.81339.55947.26961.072.55189.0564.28228-.0156.53429-.098z" style="font-variation-settings:normal;-inkscape-stroke:none" id="path29661" vector-effect="none" stop-color="#000" stop-opacity="1"/>
      <path d="M289.54598 133.37433l-4.25735-.0812q.0283.68279.49675 1.05353.4736.37083 1.4036.38858.58901.0113 1.14589-.19004.55687-.20128.88184-.438l.20667.004-.0285 1.49317q-.63516.24114-1.19534.34416-.56017.10302-1.237.0901-1.74634-.0333-2.66136-.83641-.91501-.80309-.88731-2.25493.0274-1.43634.92173-2.25658.89957-.82531 2.43408-.79602 1.41567.027 2.11497.7588.69939.72661.67376 2.06994zm-1.82887-1.12547q-.004-.58414-.27257-.88386-.26821-.29973-.84688-.31077-.53734-.0103-.88883.26213-.35149.2724-.40456.88645z" style="font-variation-settings:normal;-inkscape-stroke:none" id="path29663" vector-effect="none" stop-color="#000" stop-opacity="1"/>
      <path d="M295.17185 130.44874l1.15795 3.94708-1.79503.52661-.81609-2.7818q-.11929-.40661-.22204-.68343-.10421-.28178-.24584-.43411-.14162-.15233-.34837-.17784-.20324-.0319-.53051.0641-.26281.0771-.47874.25893-.21738.17687-.38081.35406l1.15795 3.94708-1.78511.5237-1.63365-5.56856 1.78512-.5237.18038.61488q.35496-.49727.7168-.82423.36184-.32695.87258-.47679.55041-.16147 1.04463-.0372.49277.11932.87044.52553.40315-.60835.83329-1.01458.43014-.40623.91608-.54879.90248-.26476 1.52715.13899.62964.40229.92785 1.41882l1.0634 3.62477-1.79503.5266-.81609-2.7818q-.12074-.41157-.2235-.68839-.0978-.27828-.23942-.4306-.13666-.15379-.34341-.1793-.2082-.0305-.54043.067-.22314.0655-.41308.20736-.19141.13693-.44647.40563z" style="font-variation-settings:normal;-inkscape-stroke:none" id="path29665" vector-effect="none" stop-color="#000" stop-opacity="1"/>
    </g>
  </g>
</svg>
