<svg fill="#6ddcec" stroke="#6ddcec" version="1.1" viewBox="0 0 1601 1601" xmlns="http://www.w3.org/2000/svg">
 <path d="m1555.5 121.5c-1 6-2 13-5 19-4 8-12 15-17 24-3 6-3 12-4 18l2 20 10-14c9-10 22-15 29-27 8-12 10-28 7-42-2-9-6-17-12-23-3-4-6-8-11-9-2 0-3-1-4-3l-11-22c-7-5-15-9-23-12-2 0-2-2-3-3-1-5-5-9-9-12-6-6-14-9-22-11-15-4-31-2-43 6-11 7-16 20-26 29l-14 10c6 0 12 3 19 2 6 0 13-1 18-4 9-4 16-12 25-17 5-3 12-4 18-4-9 2-18 7-23 15-7 11-9 26-1 37 5 6 13 10 20 10a19 19 0 0 0 20-23c-3-11-16-18-26-13h6c6-1 12 3 16 7 5 7 3 17-3 23-4 4-11 5-17 4-7-2-14-7-17-14-5-11-1-25 7-34 6-6 14-9 22-10 7-1 14-1 21 1 12 3 23 8 33 14 6 11 12 22 14 34 2 6 2 13 2 20-1 8-4 17-11 22-9 9-23 12-34 7-7-3-12-9-13-17-2-6-1-12 3-17 6-6 16-8 23-2 5 3 8 9 8 15l-1 6c5-10-2-23-12-25-6-2-13 0-18 4-4 4-6 10-6 15 1 8 4 15 10 20 11 8 27 7 37 0 9-6 14-15 16-24zm-66-80c-10 0-20 0-29 4-11 5-17 16-28 21-9 4-20 4-30 2l13-9 21-22a60 60 0 0 1 72 4l5 7c-8-3-16-6-24-7zm64 47 6 4c10 12 15 27 14 43-1 10-3 21-10 29-6 8-15 13-21 21l-10 13c-2-10-2-20 2-30 5-10 16-17 21-27 5-9 5-20 4-29s-3-17-6-24z"/>
 <path d="m1326.5 75.5c12 0 24-5 34-11l34-23c12-8 26-14 40-19 18-6 38-7 57-4a96 96 0 0 1 57 34 92 92 0 0 1 34 58c4 19 2 38-4 57-4 14-11 27-19 39l-23 34c-6 11-11 22-10 34 0 14 9 28 21 35 8 4 17 5 26 4 8-1 16-5 21-12 5-5 6-13 6-21 0-6-2-13-6-18s-11-8-18-8c-6 1-11 3-15 7-7 8-7 22 1 29 3 2 8 2 11 0l-7-4c-2-4-2-9-2-13 0-5 3-9 7-11 6-4 13-4 19 0 5 4 8 11 9 17 1 7-1 14-6 19-5 6-13 9-21 10a36 36 0 0 1-42-35c0-13 6-25 12-36l14-19c9-13 16-27 22-42 5-16 9-33 8-50 0-17-5-35-13-50-6-10-14-19-22-26a99 99 0 0 0-77-36c-17-1-34 3-50 9-15 5-29 13-42 22l-19 13c-11 7-23 12-36 12-9 1-17-4-24-10-9-8-12-20-11-32 2-8 4-15 10-21 5-5 12-6 19-6 7 1 13 4 17 10 4 5 4 13 0 18-2 4-6 7-11 7-4 1-9 0-12-2-3-1-4-4-5-7-2 4-2 8 1 11 7 8 21 8 28 1 4-4 7-9 7-14 1-7-3-15-8-19s-12-5-18-6c-7 0-15 2-21 6-7 6-10 14-11 22s0 17 4 25c6 13 20 22 34 22z"/>
 <path d="m1470.5 65.5c5-5 11-7 17-8 8-1 16 1 23 2l23 8c4 7 6 15 8 23s3 15 2 23c-1 6-3 13-8 17-3 4-7 8-13 8-5 1-11-3-13-8-1-3 0-6 1-9-4 3-5 7-4 11 3 8 12 12 19 10s12-7 16-12 5-12 6-19c1-11-2-22-5-33l-6-14-14-5c-10-4-21-6-33-5-6 0-13 2-19 6-5 3-9 9-11 15-2 8 2 17 9 19 4 1 9 0 11-3-3 0-6 2-9 1-5-2-9-8-8-14 1-5 4-10 8-13zm69 1391c-10-7-26-9-37-1-6 5-9 13-10 20a19 19 0 0 0 24 20c10-3 17-16 12-26l1 6c0 6-3 12-8 16-7 5-17 3-23-3-4-4-5-11-3-17 1-7 6-14 13-17 11-5 25-1 34 7 7 6 10 14 11 22 0 7 0 14-2 21-2 12-8 23-14 33-10 6-21 12-33 14-7 2-14 2-21 2-8-1-16-4-22-11-8-9-12-23-7-34 3-7 10-12 17-13 6-2 13-1 17 3 6 6 8 16 3 23-4 5-10 8-16 8l-6-1c10 5 23-2 26-12 1-6-1-13-5-18-4-4-9-6-15-6-7 1-15 4-20 10-8 11-6 27 1 37 5 9 14 14 23 16-6-1-13-2-18-5-9-4-16-12-25-17-5-3-12-3-18-4l-19 2 14 10c10 9 15 22 26 29 12 8 28 10 43 7 8-2 16-6 22-12 4-3 8-6 9-11l3-4 23-11 11-23 4-3c5-1 8-5 11-9 6-6 10-14 12-22 3-15 1-31-7-43-7-11-20-16-29-26l-10-14-2 19c1 6 1 13 4 18 5 9 13 16 17 25 3 5 4 12 5 18-2-9-7-18-16-23zm-31 103a60 60 0 0 1-42 14c-11-1-22-3-30-10-8-6-13-15-21-21l-13-10c10-2 21-2 30 2 11 5 17 16 28 21 9 5 19 5 29 4l24-6zm47-99c-5-11-16-17-21-28-4-9-4-20-2-30l10 13c6 8 15 13 21 21 7 8 9 19 10 30 1 15-4 31-14 42l-6 5 6-24c1-10 1-20-4-29z"/>
 <path d="m1533.5 1533.5c-7 4-15 6-23 8-7 2-15 3-23 2-6-1-12-3-17-8-4-3-7-7-8-13-1-5 3-11 8-13 3-1 6 0 9 1-2-4-7-5-11-4-7 3-11 12-9 19s6 12 11 16c6 4 13 5 19 6 12 1 23-2 33-5l14-6 6-14c3-10 6-21 5-33-1-6-2-13-6-19-4-5-9-9-16-11s-16 2-19 9c-1 4 0 9 4 11-1-3-2-6-1-9 2-5 8-9 13-8 6 1 10 4 13 8 5 5 7 11 8 17 1 8 0 16-2 23-2 8-4 16-8 23zm-1259-7c-12-1-23 4-34 10l-34 23c-12 8-25 15-39 19-19 6-38 8-57 4a96 96 0 0 1-58-34 92 92 0 0 1-34-57c-3-19-2-39 4-57 5-14 11-28 19-40l23-34c6-10 11-22 11-34 0-14-9-28-22-34-8-4-17-5-25-4s-16 4-22 11c-4 6-6 14-6 21 1 6 2 13 6 18s12 9 19 8c5 0 10-3 14-7 7-7 7-21-1-28-3-3-7-3-11-1 3 1 6 2 7 5 2 3 3 8 2 12 0 5-3 9-7 11-5 4-13 4-18 0-6-4-9-10-10-17 0-7 1-14 6-19 6-6 13-8 21-10a36 36 0 0 1 42 35c0 13-5 25-12 36l-13 19c-9 13-17 27-22 42-6 16-10 33-9 50 0 18 5 35 14 50 5 10 13 19 22 27a99 99 0 0 0 76 35c17 1 34-3 50-8 15-6 29-13 42-22l19-14c11-6 23-12 36-12a36 36 0 0 1 35 42c-1 8-4 16-10 21-5 5-12 7-19 6-6-1-13-4-17-9-4-6-4-13 0-19 2-4 6-7 11-7 4 0 9 0 13 2l4 7c2-3 2-8 0-11-7-8-21-8-29-1-4 4-6 9-7 15 0 7 3 14 8 18s12 6 18 6c8 0 16-1 21-6 7-5 11-13 12-21 1-9 0-18-4-26-7-12-21-21-35-21zm-207-1459 23-8c8-1 15-3 23-2 6 1 13 3 17 8 4 3 8 8 8 13 1 6-3 12-8 14-3 1-6-1-9-1 3 3 7 4 11 3 8-2 12-11 10-19-2-6-7-12-12-15-5-4-12-6-19-6-11-1-22 1-33 5l-14 5-5 14c-4 11-6 22-5 33 0 7 2 14 6 19 3 5 9 10 15 12 8 2 17-2 19-10 1-4 0-8-3-11 0 3 2 6 1 9-2 5-8 9-14 8-5 0-10-4-13-8-5-4-7-11-8-17-1-8 1-15 2-23z"/>
 <path d="m301.5 6.5c-5-4-13-6-21-6-6 1-13 2-18 6s-8 12-8 19c1 5 3 10 7 14 8 7 22 7 29-1 2-3 2-7 0-11-1 3-2 6-4 7-4 2-9 3-13 2-5 0-9-3-11-7-4-5-4-13 0-18 4-6 11-9 17-10 7 0 14 1 19 6 6 6 9 13 10 21a36 36 0 0 1-35 42c-13 0-25-5-36-12l-19-13c-13-9-27-17-42-22-16-6-33-10-50-9-17 0-35 5-50 14-10 5-19 13-26 22a99 99 0 0 0-36 76c-1 17 3 34 9 50 5 15 13 29 22 42l13 19c7 11 12 23 12 36 1 9-4 18-10 24-8 9-20 13-32 11-8-1-15-4-21-10-5-5-6-12-6-19 1-6 4-13 10-17 5-4 13-4 18 0 4 2 7 6 7 11 1 4 0 9-2 13-1 2-4 3-7 4 4 2 8 2 11 0 8-7 8-21 1-29-4-4-9-6-14-7-7 0-15 3-19 8s-5 12-6 18c0 8 2 16 6 21 6 7 14 11 22 12s17 0 25-4c13-7 22-21 22-35 0-12-5-23-11-34l-23-34c-8-12-14-25-19-39-6-19-7-38-4-57a96 96 0 0 1 34-58 92 92 0 0 1 58-34c19-3 38-2 57 4 14 5 27 11 39 19l34 23c11 6 22 11 34 11 14 0 28-9 35-22 4-8 5-17 4-25s-5-16-12-22zm-171 1529c-4 5-11 7-17 8-8 1-15 0-23-2s-16-4-23-8l-8-23c-1-7-3-15-2-23 1-6 3-12 8-17 3-4 8-7 13-8 6-1 12 3 14 8 1 3-1 6-1 9 3-2 4-7 3-11-2-7-11-11-19-9-6 2-12 6-15 11-4 6-6 13-6 19-1 12 1 23 5 33l5 14 14 6c11 3 22 6 33 5 7-1 14-2 19-6s10-9 12-16-2-16-10-19c-4-1-8 0-11 4 3-1 6-2 9-1 5 2 9 8 8 13 0 6-4 10-8 13z"/>
 <path d="m46.5 1479.5c0-6 1-13 4-18 5-9 13-16 17-25 3-5 4-12 4-18 1-7-2-13-2-19l-10 14c-9 10-22 15-29 26-8 12-10 28-6 43 2 8 5 16 11 22 3 4 7 8 12 9 1 1 3 1 3 3 3 8 7 16 12 23l22 11c2 1 3 2 3 4 1 5 5 8 9 11 6 6 14 10 23 12 14 3 30 1 42-7 12-7 17-20 27-29l14-10-20-2c-6 1-12 1-18 4-9 5-16 13-24 17-6 3-13 4-19 5 9-2 18-7 24-16 7-10 8-26 0-37-5-6-12-9-20-10a19 19 0 0 0-19 24c2 10 15 17 25 12l-6 1c-6 0-12-3-15-8-6-7-4-17 2-23 5-4 11-5 17-3 8 1 14 6 17 13 5 11 2 25-7 34-5 7-14 10-22 11-7 0-14 0-20-2-12-2-23-8-33-14-7-10-12-21-15-33-2-7-2-14-1-21 1-8 4-16 10-22 9-8 23-12 34-7 7 3 12 10 14 17 1 6 0 13-4 17-6 6-16 8-23 3-4-4-8-10-7-16v-6c-5 10 2 23 13 26 6 1 13-1 17-5s6-9 6-15c0-7-4-15-10-20-11-8-26-6-37 1-8 5-13 14-15 23zm66 80c9 1 20 1 29-4 10-5 17-16 27-21 10-4 20-4 30-2l-13 10c-8 6-13 15-21 21-8 7-19 9-29 10-16 1-31-4-43-14l-4-6c7 3 15 5 24 6zm-64-46-6-5a60 60 0 0 1-15-42c1-11 4-22 10-30l22-21 9-13c2 10 2 21-2 30-5 11-16 17-21 28-4 9-4 19-4 29 1 8 4 16 7 24zm13-1368c11 7 26 8 37 0 6-5 10-12 10-20a19 19 0 0 0-23-19c-11 2-18 15-13 25v-6c-1-6 3-12 7-15 7-6 17-4 23 2 4 5 5 11 4 17-2 8-7 14-14 17-11 5-25 2-34-7-6-5-9-14-10-22-1-7-1-14 1-20 3-12 8-23 15-33 10-7 21-12 33-15 6-2 13-2 20-1 8 1 17 4 22 10 9 9 12 23 7 34-3 7-9 12-17 14-6 1-12 0-17-4-6-6-8-16-2-23 3-4 9-8 15-7h6c-10-5-23 2-25 13-2 6 0 13 4 17s10 6 15 6c8 0 15-4 20-10 8-11 7-26 0-37-6-8-15-13-24-15 6 0 13 1 19 4 8 5 15 13 24 17 6 3 12 4 18 4 7 1 13-2 20-2l-14-10c-10-9-15-22-27-29-12-8-28-10-42-6-9 2-17 5-23 11-4 3-8 7-9 12 0 1-1 3-3 3-8 3-15 7-22 12-5 7-9 14-12 22 0 2-2 3-3 3-5 1-9 5-12 9-6 6-9 14-11 23-4 14-2 30 6 42 7 12 20 17 29 27l10 14c0-7 3-13 2-20 0-6-1-12-4-18-4-9-12-16-17-24-3-6-4-13-4-19 2 9 7 18 15 24zm31-103c12-11 27-15 43-15 10 1 21 4 29 10l21 22 13 9c-10 2-20 2-30-2-10-5-17-16-27-21-9-4-20-4-29-4-9 1-17 4-24 7 1-2 2-5 4-6zm-47 99c5 10 16 17 21 27 4 10 4 20 2 30l-9-13-22-21c-6-8-9-19-10-29 0-16 4-31 15-43 1-2 4-3 6-4-3 7-6 15-7 24 0 9 0 20 4 29zm1528 1147c-9-1-18 0-26 4-12 6-21 20-21 34-1 12 4 24 10 34l23 34c8 12 15 26 19 40 6 18 8 38 4 57a96 96 0 0 1-34 57 92 92 0 0 1-57 34c-19 4-39 2-57-4-14-4-28-11-40-19l-34-23c-10-6-22-11-34-10-14 0-28 9-34 21-4 8-5 17-4 26 1 8 4 16 11 21 6 5 14 6 21 6 6 0 13-2 18-6s9-11 8-18c0-6-3-11-7-15-7-7-21-7-28 1-3 3-3 8-1 11 1-2 2-5 5-7s8-2 12-2c5 0 9 3 11 7 4 6 4 13 0 19-4 5-10 8-17 9s-14-1-19-6c-6-5-8-13-10-21a36 36 0 0 1 35-42c13 0 25 6 36 12l19 14c13 9 27 16 42 22 16 5 33 9 50 8a99 99 0 0 0 76-36 99 99 0 0 0 36-76c1-17-3-34-8-50-6-15-13-29-22-42l-14-19c-6-11-12-23-12-36a36 36 0 0 1 42-35c8 2 16 4 21 10 5 5 7 12 6 19s-4 13-9 17c-6 4-13 4-19 0-4-2-7-6-7-11 0-4 0-9 2-12s5-4 7-5c-3-2-8-2-11 1-8 7-8 21-1 28 4 4 9 7 15 7 7 1 14-3 18-8s6-12 6-18c0-7-1-15-6-21-5-7-13-10-21-11zm-209-1266c5 4 11 7 17 8 15 2 30-2 42-10l-8-1c-7 0-15-4-22-6-8-2-16-6-24-4-3 1-7 2-8 5s1 6 3 8zm20-7c11 3 23 7 35 6-8 2-15 5-23 5-8 1-17 0-24-5-3-1-5-3-6-6 5-3 12-1 18 0zm-1370 225c3 0 6-2 8-4 4-4 7-10 8-17 2-14-2-29-10-41l-1 7c0 8-4 15-6 23-2 7-6 15-4 24 1 3 2 7 5 8zm1-24c3-11 7-22 6-34 2 7 5 14 5 22 1 8 0 17-5 24-1 3-3 6-6 7-3-6-1-13 0-19zm221 1363c-4-5-10-7-17-9-14-2-29 2-41 10l7 1c8 1 15 4 23 6 7 2 15 6 24 4 3 0 7-2 8-5 0-3-2-6-4-7zm-20 6c-11-2-22-7-34-6l22-5c8-1 17 0 24 5 3 1 6 3 7 6-6 3-13 2-19 0z"/>
 <path d="m1586.5 1361.5c-3-1-6 1-7 3-5 5-7 11-9 17-2 15 2 30 10 42l1-8 6-22c2-8 6-16 4-24 0-3-2-7-5-8zm-1 23c-2 11-7 23-6 35l-5-23c-1-8 0-17 5-24 1-3 3-5 6-6 3 5 2 12 0 18zm-5-1206c-8 12-12 27-10 41 2 7 4 13 9 17 1 2 4 4 7 4 3-1 5-5 5-8 2-9-2-17-4-24-2-8-5-15-6-23zm5 57c-3-1-5-4-6-7-5-7-6-16-5-24l5-22c-1 12 4 23 6 34 2 6 3 13 0 19zm-1366-205c7-1 13-4 17-8 2-2 4-5 4-8-1-3-5-4-8-5-9-2-17 2-24 4-8 2-15 6-23 6l-7 1c12 8 27 12 41 10zm-15-4c-8 0-15-3-22-5 12 1 23-3 34-6 6-1 13-3 19 0-1 3-4 5-7 6-7 5-16 6-24 5zm-184 1397c8-12 12-27 10-42-1-6-4-12-8-17-2-2-5-4-8-3s-4 5-5 8c-2 8 2 16 4 24 2 7 6 15 6 22zm-5-57c3 1 5 3 6 6 5 7 6 16 5 24 0 8-3 15-5 23 1-12-3-24-6-35-1-6-3-13 0-18zm1366 204c-6 2-12 4-17 9-2 1-4 4-3 7s5 5 8 5c8 2 16-2 24-4l22-6 8-1c-12-8-27-12-42-10zm15 4 23 5c-12-1-24 4-35 6-6 2-13 3-18 0 1-3 3-5 6-6 7-5 16-6 24-5zm-125-1551c-5 1-8 7-6 12 1 5 8 8 13 5s6-11 2-15c-2-2-6-3-9-2zm7 11c-2 3-6 3-8 1s-1-7 2-8c4-2 8 3 6 7zm-1238 288c-3-5-11-6-15-2-2 3-3 6-2 10s7 7 12 5c5-1 8-8 5-13zm-5 8c-2 2-7 2-8-1-2-4 3-9 7-6 3 1 3 5 1 7zm287 1231c-5 2-6 10-2 14 3 3 6 3 10 2s7-7 5-11c-1-6-8-8-13-5zm7 12c-4 2-9-3-6-7 1-3 5-3 7-1s2 7-1 8zm1232-295c2 5 10 6 14 2 3-2 3-6 2-9-1-5-7-8-11-6-6 1-8 8-5 13zm4-8c2-2 7-1 8 2 2 4-3 8-7 6-3-2-3-6-1-8zm10-950c-4-4-12-3-14 2-3 5-1 12 5 13 4 2 10-1 11-5s1-7-2-10zm-2 9c-1 3-6 3-8 1s-2-6 1-7c4-3 9 2 7 6zm-1243-306c-4-1-7 0-10 2-4 4-3 12 2 15s12 0 13-5c2-5-1-11-5-12zm0 12c-2 2-6 2-7-1-3-4 2-9 6-7 3 1 3 6 1 8zm-305 1245c4 4 12 3 15-2s0-12-5-13c-5-2-11 1-12 6-1 3 0 7 2 9zm2-8c1-3 6-4 8-2s2 6-1 8c-4 2-9-2-7-6zm1251 289c-5-3-12-1-13 5-2 4 1 10 6 11 3 1 7 1 9-2 4-4 3-12-2-14zm-6 12c-3-1-4-6-2-8s6-2 8 1c2 4-2 9-6 7zm-14-1545h-916c-3 0-5 4-3 6 1 2 4 2 6 2h911c2 0 4 0 5-2 2-2 0-6-3-6zm-1224 311c-2-2-6 0-6 3v916c0 3 4 5 6 3 2-1 2-3 2-5v-911c0-2 0-5-2-6zm1222 1225h-440l-2 1h-28l-2-1h-439c-2 1-5 0-6 2-2 3 0 7 3 7h916c3 0 5-4 3-7-1-2-3-1-5-2zm308-784v476c1 2 0 4 2 5 3 2 7 0 7-3v-916c0-3-4-5-7-3-2 1-1 4-2 6z"/>
</svg>
