<?xml version="1.0" encoding="UTF-8"?>
<!-- Created with Inkscape (http://www.inkscape.org/) -->
<svg width="100" height="100" version="1.1" viewBox="0 0 26 26" xmlns="http://www.w3.org/2000/svg">
 <g transform="matrix(.037 0 0 .038 29 -45)">
  <path d="m-215 1187 115 155-40 232-298 259-299-256-42-232 114-158h131l94 50 94-50z" fill="#37c8ab"/>
  <path d="m-665 1187 68 100h91l65 35 0.97-84-94-50z" fill="#37c8ab"/>
  <path d="m-215 1187-70 100 80 107 106-52-115-155z" fill="#87decd"/>
  <path d="m-346 1187-94 50-0.97 84 65-35h91l70-100z" fill="#5fd3bc"/>
  <path d="m-233 1555 93 19 40-232-106 52z" fill="#37c8ab"/>
  <path d="m-440 1734 1.7 99 298-259-93-19z" fill="#2ca089"/>
  <path d="m-647 1556-90 20 299 256-1.7-99z" fill="#217867"/>
  <path d="m-779 1344 42 232 90-20-29-161z" fill="#2ca089"/>
  <path d="m-665 1187-114 158 103 51 79-109z" fill="#5fd3bc"/>
  <path d="m-285 1287 80 107-28 161-207 179-207-177-29-161 79-109h91l65 35 65-35z" fill="#d7f4ee"/>
  <path d="m-301 1309 72 97-25 145-186 162-187-160-26-145 71-98h82l59 31 59-31z" fill="#afe9dd"/>
  <path d="m-568 1309c-1.6 8.8-2.7 18-3.1 27-3.8 127 118 236 279 250l-148 126-187-160-26-145 71-98z" fill="#2ca089" opacity=".13"/>
  <g fill="#d7f4ee">
   <ellipse transform="rotate(-68)" cx="-1619" cy="-11" rx="31" ry="30"/>
   <ellipse transform="rotate(-68)" cx="-1588" cy="-37" rx="26" ry="23"/>
   <ellipse cx="-442" cy="1349" rx="26" ry="23"/>
   <ellipse cx="-306" cy="1533" rx="56" ry="47"/>
   <ellipse cx="-308" cy="1581" rx="31" ry="28"/>
  </g>
  <path d="m-665 1187-114 158 42 232 299 256 298-259 40-232-115-155h-131l-94 50-94-50zm68 100h91l65 35 65-35h91l80 107-28 161-207 179-207-177-29-161z" fill="none" stroke="#0b2822" stroke-width="5.7"/>
  <path d="m-646 1215-104 144 38 212 273 234 272-236 37-212-105-141h-120l-86 46-86-46zm31 44h102l73 39 73-39h102l89 120-31 180-231 201-232-199-32-180z" fill="#d7f4ee" opacity=".33"/>
 </g>
</svg>
