<?xml version="1.0" encoding="UTF-8"?>
<!-- Created with Inkscape (http://www.inkscape.org/) -->
<svg width="100" height="100" version="1.1" viewBox="0 0 26 26" xmlns="http://www.w3.org/2000/svg">
 <g transform="matrix(.044 0 0 .039 -3 -83)">
  <path d="m241 2160-155 194 89 353 190 91 190-91 89-353-155-194zm39 101h170l106 133-61 242-130 62-130-62-61-242z" fill="#f06"/>
  <path d="m495 2636 60 72 89-353-88 40z" fill="#f59"/>
  <path d="m241 2160 39 101h170l39-101z" fill="#f06"/>
  <path d="m556 2394 88-40-155-194-39 101z" fill="#ff2a7f"/>
  <path d="m365 2698v101l190-91-60-72z" fill="#d40055"/>
  <path d="m235 2636-60 72 190 91v-101z" fill="#a04"/>
  <path d="m174 2394-88-40 89 353 60-72z" fill="#f06"/>
  <path d="m241 2160-155 194 88 40 106-133z" fill="#ff2a7f"/>
  <path d="m365 2698-130-62-61-242 106-133h170l106 133-61 242z" fill="#fac"/>
  <g fill="#ffd5e5">
   <path d="m463 2278a295 281 0 0 1 5.3 52 295 281 0 0 1-241 276l7.5 30 130 62 130-62 61-242z"/>
   <ellipse cx="330" cy="2557" rx="36" ry="26"/>
   <ellipse cx="439" cy="2427" rx="22" ry="25"/>
   <circle cx="292" cy="2369" r="39"/>
   <path d="m250 2184-143 179 82 327 175 84 175-84 82-327-143-179zm16 41h198l124 155-71 282-152 73-152-73-71-282z" opacity=".5"/>
  </g>
  <path d="m241 2160-155 194 89 353 190 91 190-91 89-353-155-194zm39 101h170l106 133-61 242-130 62-130-62-61-242z" fill="none" stroke="#2b0011" stroke-width="5.7"/>
 </g>
</svg>
