<svg width="100" height="100" viewBox="0 0 26 26" xmlns="http://www.w3.org/2000/svg">
  <g transform="matrix(0.04,0,0,0.04,-123.90374,-201.36363) matrix(0.71,0,0,0.71,761,5000)">
    <path d="M4176 683l-248 249h-352l-249-248V332l248-249 352-1 249 249z" fill="#06f"/>
    <path d="M4059 633l-178 178-252 1-178-178V381l178-178h252l178 178z" fill="#d5e5ff"/>
    <path d="M4057 632l121 50V330l-121 50z" fill="#2a7fff"/>
    <path d="M3879 810l50 121 248-249-121-50z" fill="#06f"/>
    <path d="M3627 811l-50 121h352l-50-121h-252z" fill="#0055d4"/>
    <path d="M3449 633l-121 50 249 248 50-121z" fill="#04a"/>
    <path d="M3449 381l-121-50v352l121-50z" fill="#0055d4"/>
    <path d="M3627 203l-50-121-248 249 121 50z" fill="#06f"/>
    <path d="M3928 82h-352l50 121h252z" fill="#59f"/>
    <path d="M3928 82l-50 121 178 178 121-50z" fill="#80b3ff"/>
    <path d="M3928 82h-352l-248 249v352l249 248h352l248-249V330zm-50 121l178 178v252l-178 178h-252l-178-178V381l178-178z" fill="none" stroke="#00112b" stroke-width="4"/>
    <path d="M4007 613l-147 148h-210l-148-148V404l148-149h209l148 148z" fill="#acf"/>
    <path d="M3560 343l-59 60v209l148 148h209l147-147a309 299 0 01-136 31 309 299 0 01-309-299z" fill="#59f" opacity=".3"/>
    <ellipse transform="matrix(0.91,-0.41,0.36,0.93,0,0)" cx="3513" cy="2000" rx="51" ry="65" fill="#fff"/>
    <path d="M3846 315a10 14 2 00-3 1 10 14 2 00-7 17 10 14 2 004 8 29 25 52 0012 35 29 25 52 0036-6 29 25 52 00-11-39 29 25 52 00-23-4 10 14 2 000-2 10 14 2 00-9-10z" fill="#fff"/>
    <path d="M3913 119h-321l-227 227v321l227 227h321l227-227V346zm-22 53l196 196v277l-196 196h-277l-196-196V368l196-196z" fill="#acf" opacity=".4"/>
  </g>
</svg>
