<?xml version="1.0" encoding="UTF-8"?>
<!-- Created with Inkscape (http://www.inkscape.org/) -->
<svg width="100" height="100" version="1.1" viewBox="0 0 26 26" xmlns="http://www.w3.org/2000/svg">
 <g transform="matrix(.046 0 0 .038 68 -8.3)">
  <g transform="matrix(.89 0 0 .96 -144 9.8)">
   <g>
    <rect transform="matrix(.54 .84 -.54 .84 0 0)" x="-961" y="1230" width="413" height="413" fill="#37c837"/>
    <path d="m-1190 226v122l145 224h79z" fill="#87de87"/>
    <path d="m-1190 797v122l224-347h-79z" fill="#37c837"/>
   </g>
   <path d="m-1190 226-224 347 224 347 224-347zm0 122 145 224-145 224-145-224z" fill="none" stroke="#0b280b" stroke-width="5.7"/>
   <g>
    <path d="m-1190 226-224 347h79l145-224z" fill="#5fd35f"/>
    <rect transform="matrix(.54 .84 -.54 .84 0 0)" x="-888" y="1303" width="267" height="267" fill="#afe9af"/>
    <path d="m-1335 573h-79l224 347v-122z" fill="#2ca02c"/>
    <path d="m-1134 435a192 232 54 0 1 1.1 61 19 19 0 0 0-8.3-1.9 19 19 0 0 0-19 19 19 19 0 0 0 11 17 11 14 0 0 0-8.4 13 11 14 0 0 0 7.2 13 192 232 54 0 1-48 71 28 26 0 0 0-21-11 14 12 0 0 0-14-11 14 12 0 0 0-14 12 14 12 0 0 0 4.7 9.1 28 26 0 0 0-5.3 15 28 26 0 0 0 11 20 192 232 54 0 1-9.6 6.6 192 232 54 0 1-18 11l76 118 145-224zm-91 21a33 35 23 0 0-16 4.1 33 35 23 0 0-16 47 33 35 23 0 0 44 15 33 35 23 0 0 16-47 33 35 23 0 0-28-19z" fill="#d7f4d7" opacity=".72"/>
    <ellipse cx="-1434" cy="505" rx=".6" ry="1.2" fill="#d7f4d7"/>
    <path d="m-1190 263-200 310 200 310 200-310zm0 39 175 271-175 271-175-271z" fill="#afe9af" opacity=".62"/>
   </g>
  </g>
 </g>
</svg>
