<svg viewBox="0 0 2323 655" preserveAspectRatio="none" fill="#6ddcec" stroke="#6ddcec"
    xmlns="http://www.w3.org/2000/svg">
    <path d="M2278 122c-1 6-2 13-5 19-4 8-12 15-17 24-3 6-3 12-4 18l2 20 10-14c9-10 22-15 29-27 8-12 10-28 7-42-2-9-6-17-12-23-3-4-6-8-11-9-2 0-3-1-4-3l-11-22c-7-5-15-9-23-12-2 0-2-2-3-3-1-5-5-9-9-12-6-6-14-9-22-11-15-4-31-2-43 6-11 7-16 20-26 29l-14 10c6 0 12 3 19 2 6 0 13-1 18-4 9-4 16-12 25-17 5-3 12-4 18-4-9 2-18 7-23 15-7 11-9 26-1 37 5 6 13 10 20 10 12 0 22-11 20-23-3-11-16-18-26-13h6c6-1 12 3 16 7 5 7 3 17-3 23-4 4-11 5-17 4-7-2-14-7-17-14-5-11-1-25 7-34 6-6 14-9 22-10 7-1 14-1 21 1 12 3 23 8 33 14 6 11 12 22 14 34 2 6 2 13 2 20-1 8-4 17-11 22-9 9-23 12-34 7-7-3-12-9-13-17-2-6-1-12 3-17 6-6 16-8 23-2 5 3 8 9 8 15l-1 6c5-10-2-23-12-25-6-2-13 0-18 4-4 4-6 10-6 15 1 8 4 15 10 20 11 8 27 7 37 0 9-6 14-15 16-24zm-66-80c-10 0-20 0-29 4-11 5-17 16-28 21-9 4-20 4-30 2l13-9 21-22c22-15 51-14 72 4l5 7c-8-3-16-6-24-7zm64 47l6 4c10 12 15 27 14 43-1 10-3 21-10 29-6 8-15 13-21 21l-10 13c-2-10-2-20 2-30 5-10 16-17 21-27 5-9 5-20 4-29s-3-17-6-24z"/>
    <path d="M2049 76c12 0 24-5 34-11l34-23c12-8 26-14 40-19 18-6 38-7 57-4 22 4 42 16 57 34 18 14 30 35 34 58 4 19 2 38-4 57-4 14-11 27-19 39l-23 34c-6 11-11 22-10 34 0 14 9 28 21 35 8 4 17 5 26 4 8-1 16-5 21-12 5-5 6-13 6-21 0-6-2-13-6-18s-11-8-18-8c-6 1-11 3-15 7-7 8-7 22 1 29 3 2 8 2 11 0l-7-4c-2-4-2-9-2-13 0-5 3-9 7-11 6-4 13-4 19 0 5 4 8 11 9 17 1 7-1 14-6 19-5 6-13 9-21 10-22 3-42-13-42-35 0-13 6-25 12-36l14-19c9-13 16-27 22-42 5-16 9-33 8-50 0-17-5-35-13-50-6-10-14-19-22-26a99 99 0 00-77-36 168 168 0 00-92 31l-19 13c-11 7-23 12-36 12-9 1-17-4-24-10-9-8-12-20-11-32 2-8 4-15 10-21 5-5 12-6 19-6 7 1 13 4 17 10 4 5 4 13 0 18-2 4-6 7-11 7-4 1-9 0-12-2-3-1-4-4-5-7-2 4-2 8 1 11 7 8 21 8 28 1 4-4 7-9 7-14 1-7-3-15-8-19s-12-5-18-6c-7 0-15 2-21 6-7 6-10 14-11 22s0 17 4 25c6 13 20 22 34 22z"/>
    <path d="M2220 54l-9 1c-6 0-13 2-19 6-5 3-9 9-11 15-2 8 2 17 9 19 4 1 9 0 11-3-3 0-6 2-9 1-5-2-9-8-8-14 1-5 4-10 8-13 5-5 11-7 17-8 8-1 16 1 23 2l23 8c4 7 6 15 8 23s3 15 2 23c-1 6-3 13-8 17-3 4-7 8-13 8-5 1-11-3-13-8-1-3 0-6 1-9-4 3-5 7-4 11 3 8 12 12 19 10s12-7 16-12 5-12 6-19c1-11-2-22-5-33l-6-14-14-5c-7-3-15-5-24-6zm33 399l-2 19c1 6 1 13 4 18 5 9 13 16 17 25 3 5 4 12 5 18-2-9-7-18-16-23-10-7-26-9-37-1-6 5-9 13-10 20-1 14 12 24 24 20 10-3 17-16 12-26l1 6c0 6-3 12-8 16-7 5-17 3-23-3-4-4-5-11-3-17 1-7 6-14 13-17 11-5 25-1 34 7 7 6 10 14 11 22 0 7 0 14-2 21-2 12-8 23-14 33-10 6-21 12-33 14-7 2-14 2-21 2-8-1-16-4-22-11-8-9-12-23-7-34 3-7 10-12 17-13 6-2 13-1 17 3 6 6 8 16 3 23-4 5-10 8-16 8l-6-1c10 5 23-2 26-12 1-6-1-13-5-18-4-4-9-6-15-6-7 1-15 4-20 10-8 11-6 27 1 37 5 9 14 14 23 16-6-1-13-2-18-5-9-4-16-12-25-17-5-3-12-3-18-4l-19 2 14 10c10 9 15 22 26 29 12 8 28 10 43 7 8-2 16-6 22-12 4-3 8-6 9-11l3-4 23-11 11-23 4-3c5-1 8-5 11-9 6-6 10-14 12-22 3-15 1-31-7-43-7-11-20-16-29-26zm1 3l10 13c6 8 15 13 21 21 7 8 9 19 10 30 1 15-4 31-14 42l-6 5 6-24c1-10 1-20-4-29-5-11-16-17-21-28-4-9-4-20-2-30zm-114 129c5 0 10 1 14 3 11 5 17 16 28 21 9 5 19 5 29 4l24-6-5 6a60 60 0 01-42 14c-11-1-22-3-30-10-8-6-13-15-21-21l-13-10 16-1z"/>
    <path d="M112 55c-11-1-22 1-33 5l-14 5-5 14c-4 11-6 22-5 33 0 7 2 14 6 19 3 5 9 10 15 12 8 2 17-2 19-10 1-4 0-8-3-11 0 3 2 6 1 9-2 5-8 9-14 8-5 0-10-4-13-8-5-4-7-11-8-17-1-8 1-15 2-23l8-23 23-8c8-1 15-3 23-2 6 1 13 3 17 8 4 3 8 8 8 13 1 6-3 12-8 14-3 1-6-1-9-1 3 3 7 4 11 3 8-2 12-11 10-19-2-6-7-12-12-15-5-4-12-6-19-6zM29 343c-8 1-16 4-22 11-4 6-6 14-6 21 1 6 2 13 6 18s12 9 19 8c5 0 10-3 14-7 7-7 7-21-1-28-3-3-7-3-11-1 3 1 6 2 7 5 2 3 3 8 2 12 0 5-3 9-7 11-5 4-13 4-18 0-6-4-9-10-10-17 0-7 1-14 6-19 6-6 13-8 21-10 21-4 41 12 42 35 0 13-5 25-12 36l-13 19a168 168 0 00-31 92c0 18 5 35 14 50 5 10 13 19 22 27 18 22 46 35 76 35 17 1 34-3 50-8 15-6 29-13 42-22l19-14c11-6 23-12 36-12 22 0 38 20 35 42-1 8-4 16-10 21-5 5-12 7-19 6-6-1-13-4-17-9-4-6-4-13 0-19 2-4 6-7 11-7 4 0 9 0 13 2l4 7c2-3 2-8 0-11-7-8-21-8-29-1-4 4-6 9-7 15 0 7 3 14 8 18s12 6 18 6c8 0 16-1 21-6 7-5 11-13 12-21 1-9 0-18-4-26-7-12-21-21-35-21-12-1-23 4-34 10l-34 23c-12 8-25 15-39 19-19 6-38 8-57 4-23-4-44-17-58-34a92 92 0 01-34-57c-3-19-2-39 4-57 5-14 11-28 19-40l23-34c6-10 11-22 11-34 0-14-9-28-22-34-8-4-17-5-25-4zm2213 170c-6 1-11 4-13 10-1 4 0 9 4 11-1-3-2-6-1-9 2-5 8-9 13-8 6 1 10 4 13 8 5 5 7 11 8 17 1 8 0 16-2 23-2 8-4 16-8 23-7 4-15 6-23 8-7 2-15 3-23 2-6-1-12-3-17-8-4-3-7-7-8-13-1-5 3-11 8-13 3-1 6 0 9 1-2-4-7-5-11-4-7 3-11 12-9 19s6 12 11 16c6 4 13 5 19 6 12 1 23-2 33-5l14-6 6-14c3-10 6-21 5-33-1-6-2-13-6-19-4-5-9-9-16-11l-6-1z"/>
    <path d="M281 1c-6 1-13 2-18 6s-8 12-8 19c1 5 3 10 7 14 8 7 22 7 29-1 2-3 2-7 0-11-1 3-2 6-4 7-4 2-9 3-13 2-5 0-9-3-11-7-4-5-4-13 0-18 4-6 11-9 17-10 7 0 14 1 19 6 6 6 9 13 10 21 3 21-13 41-35 42-13 0-25-5-36-12l-19-13a168 168 0 00-92-31c-17 0-35 5-50 14-10 5-19 13-26 22a99 99 0 00-36 76 168 168 0 0031 92l13 19c7 11 12 23 12 36 1 9-4 18-10 24-8 9-20 13-32 11-8-1-15-4-21-10-5-5-6-12-6-19 1-6 4-13 10-17 5-4 13-4 18 0 4 2 7 6 7 11 1 4 0 9-2 13-1 2-4 3-7 4 4 2 8 2 11 0 8-7 8-21 1-29-4-4-9-6-14-7-7 0-15 3-19 8s-5 12-6 18c0 8 2 16 6 21 6 7 14 11 22 12s17 0 25-4c13-7 22-21 22-35 0-12-5-23-11-34l-23-34c-8-12-14-25-19-39-6-19-7-38-4-57 3-23 16-44 34-58 14-19 35-31 58-34 19-3 38-2 57 4 14 5 27 11 39 19l34 23c11 6 22 11 34 11 14 0 28-9 35-22 4-8 5-17 4-25s-5-16-12-22c-5-4-13-6-21-6zM82 513l-7 1c-6 2-12 6-15 11-4 6-6 13-6 19-1 12 1 23 5 33l5 14 14 6c11 3 22 6 33 5 7-1 14-2 19-6s10-9 12-16-2-16-10-19c-4-1-8 0-11 4 3-1 6-2 9-1 5 2 9 8 8 13 0 6-4 10-8 13-4 5-11 7-17 8-8 1-15 0-23-2s-16-4-23-8l-8-23c-1-7-3-15-2-23 1-6 3-12 8-17 3-4 8-7 13-8 6-1 12 3 14 8 1 3-1 6-1 9 3-2 4-7 3-11-1-6-6-9-12-10z"/>
    <path d="M2098 9l-6 1c-3 1-7 2-8 5s1 6 3 8c5 4 11 7 17 8 15 2 30-2 42-10l-8-1c-7 0-15-4-22-6-6-2-12-5-18-5zm-1 5l10 2c11 3 23 7 35 6-8 2-15 5-23 5-8 1-17 0-24-5-3-1-5-3-6-6 2-2 5-2 8-2zM130 23l-10 2c-9 2-17 5-23 11-4 3-8 7-9 12 0 1-1 3-3 3-8 3-15 7-22 12-5 7-9 14-12 22 0 2-2 3-3 3-5 1-9 5-12 9-6 6-9 14-11 23-4 14-2 30 6 42 7 12 20 17 29 27l10 14c0-7 3-13 2-20 0-6-1-12-4-18-4-9-12-16-17-24-3-6-4-13-4-19 2 9 7 18 15 24 11 7 26 8 37 0 6-5 10-12 10-20 0-13-11-22-23-19-11 2-18 15-13 25v-6c-1-6 3-12 7-15 7-6 17-4 23 2 4 5 5 11 4 17-2 8-7 14-14 17-11 5-25 2-34-7-6-5-9-14-10-22-1-7-1-14 1-20 3-12 8-23 15-33 10-7 21-12 33-15 6-2 13-2 20-1 8 1 17 4 22 10 9 9 12 23 7 34-3 7-9 12-17 14-6 1-12 0-17-4-6-6-8-16-2-23 3-4 9-8 15-7h6c-10-5-23 2-25 13-2 6 0 13 4 17s10 6 15 6c8 0 15-4 20-10 8-11 7-26 0-37-6-8-15-13-24-15 6 0 13 1 19 4 8 5 15 13 24 17 6 3 12 4 18 4 7 1 13-2 20-2l-14-10c-10-9-15-22-27-29-9-6-21-9-32-8zm6 5c10 1 21 4 29 10l21 22 13 9c-10 2-20 2-30-2-10-5-17-16-27-21-9-4-20-4-29-4-9 1-17 4-24 7 1-2 2-5 4-6 12-11 27-15 43-15zM49 89c-3 7-6 15-7 24 0 9 0 20 4 29 5 10 16 17 21 27 4 10 4 20 2 30l-9-13-22-21c-6-8-9-19-10-29 0-16 4-31 15-43 1-2 4-3 6-4zm-28 90l-1 7c0 8-4 15-6 23-2 7-6 15-4 24 1 3 2 7 5 8 3 0 6-2 8-4 4-4 7-10 8-17 2-14-2-29-10-41zm1 4c2 7 5 14 5 22 1 8 0 17-5 24-1 3-3 6-6 7-3-6-1-13 0-19 3-11 7-22 6-34zm2274 160c-9-1-18 0-26 4-12 6-21 20-21 34-1 12 4 24 10 34l23 34c8 12 15 26 19 40 6 18 8 38 4 57-5 22-17 42-34 57a92 92 0 01-57 34c-19 4-39 2-57-4-14-4-28-11-40-19l-34-23c-10-6-22-11-34-10-14 0-28 9-34 21-4 8-5 17-4 26 1 8 4 16 11 21 6 5 14 6 21 6 6 0 13-2 18-6s9-11 8-18c0-6-3-11-7-15-7-7-21-7-28 1-3 3-3 8-1 11 1-2 2-5 5-7s8-2 12-2c5 0 9 3 11 7 4 6 4 13 0 19-4 5-10 8-17 9s-14-1-19-6c-6-5-8-13-10-21-4-22 12-42 35-42 13 0 25 6 36 12l19 14c13 9 27 16 42 22 16 5 33 9 50 8 29-1 57-14 76-36 22-19 35-47 36-76 1-17-3-34-8-50-6-15-13-29-22-42l-14-19c-6-11-12-23-12-36 0-23 20-39 42-35 8 2 16 4 21 10 5 5 7 12 6 19s-4 13-9 17c-6 4-13 4-19 0-4-2-7-6-7-11 0-4 0-9 2-12s5-4 7-5c-3-2-8-2-11 1-8 7-8 21-1 28 4 4 9 7 15 7 7 1 14-3 18-8s6-12 6-18c0-7-1-15-6-21-5-7-13-10-21-11zM70 454l-10 14c-9 10-22 15-29 26-8 12-10 28-6 43 2 8 5 16 11 22 3 4 7 8 12 9 1 1 3 1 3 3 3 8 7 16 12 23l22 11c2 1 3 2 3 4 1 5 5 8 9 11 6 6 14 10 23 12 14 3 30 1 42-7 12-7 17-20 27-29l14-10-20-2c-6 1-12 1-18 4-9 5-16 13-24 17-6 3-13 4-19 5 9-2 18-7 24-16 7-10 8-26 0-37-5-6-12-9-20-10l-5 2c3-1 6 0 9 1 8 1 14 6 17 13 5 11 2 25-7 34-5 7-14 10-22 11-7 0-14 0-20-2-12-2-23-8-33-14-7-10-12-21-15-33-2-7-2-14-1-21 1-8 4-16 10-22 9-8 23-12 34-7 7 3 12 10 14 17 1 6 0 13-4 17-6 6-16 8-23 3-4-4-8-10-7-16v-6c-5 10 2 23 13 26 6 1 13-1 17-5s6-9 6-15c0-7-4-15-10-20-11-8-26-6-37 1-8 5-13 14-15 23 0-6 1-13 4-18 5-9 13-16 17-25 3-5 4-12 4-18 1-7-2-13-2-19zm51 95c-3 0-6 1-8 4 0 0 0 0 0 0l8-4zm-8 4a19 19 0 000 0zm-4 4a18 18 0 000 0zm-2 10v3c2 10 15 17 25 12l-6 1c-6 0-12-3-15-8-3-2-3-5-4-8zM69 457c2 10 2 21-2 30-5 11-16 17-21 28-4 9-4 19-4 29 1 8 4 16 7 24l-6-5a60 60 0 01-15-42c1-11 4-22 10-30l22-21zm115 128l15 2-13 10c-8 6-13 15-21 21-8 7-19 9-29 10-16 1-31-4-43-14l-4-6c7 3 15 5 24 6s20 1 29-4c10-5 17-16 27-21l15-4zm25 39c-11 1-21 5-30 11l7 1c8 1 15 4 23 6 7 2 15 6 24 4 3 0 7-2 8-5 0-3-2-6-4-7-4-5-10-7-17-9l-11-1zm-4 5c8-1 17 0 24 5 3 1 6 3 7 6-6 3-13 2-19 0-11-2-22-7-34-6z"/>
    <path d="M226 9c-6 0-12 3-17 5-8 2-15 6-23 6l-7 1c12 8 27 12 41 10 7-1 13-4 17-8 2-2 4-5 4-8-1-3-5-4-8-5l-7-1zm0 5c3 0 7 0 10 2-1 3-4 5-7 6-7 5-16 6-24 5-8 0-15-3-22-5 12 1 23-3 34-6l9-2zm99 9l-4 3c-4 4-3 12 2 15s12 0 13-5c2-5-1-11-5-12l-6-1zm1673 0l-5 1c-5 1-8 7-6 12 1 5 8 8 13 5s6-11 2-15l-4-3zM326 27l3 1c3 1 3 6 1 8s-6 2-7-1c-2-3 0-7 3-8zm1671 0c3 1 5 5 4 8-2 3-6 3-8 1s-1-7 2-8l2-1zM343 29c-3 0-5 4-3 6 1 2 4 2 6 2h1633c2 0 4 0 5-2 2-2 0-6-3-6zm1960 150c-8 12-12 27-10 41 2 7 4 13 9 17 1 2 4 4 7 4 3-1 5-5 5-8 2-9-2-17-4-24-2-8-5-15-6-23zm-1 4c-1 12 4 23 6 34 2 6 3 13 0 19-3-1-5-4-6-7-5-7-6-16-5-24zM33 318c-2 0-5 0-7 2-2 3-3 6-2 10s7 7 12 5c5-1 8-8 5-13-2-2-5-4-8-4zm2257 0c-3 0-5 2-6 4-3 5-1 12 5 13 4 2 10-1 11-5s1-7-2-10c-2-2-5-2-8-2zM32 323h3c3 1 3 5 1 7s-7 2-8-1c-2-3 1-6 4-6zm2260 0c3 0 5 3 4 6s-6 3-8 1-2-6 1-7h3zM15 415c-3 1-4 5-5 8-2 8 2 16 4 24 2 7 6 15 6 22l1 8c8-12 12-27 10-42-1-6-4-12-8-17-2-2-5-4-8-3zm2294 0c-3-1-6 1-7 3-5 5-7 11-9 17-2 15 2 30 10 42l1-8 6-22c2-8 6-16 4-24 0-3-2-7-5-8zM16 420c3 1 5 3 6 6 5 7 6 16 5 24 0 8-3 15-5 23 1-12-3-24-6-35-1-6-3-13 0-18zm2292 0c3 5 2 12 0 18-2 11-7 23-6 35l-5-23c-1-8 0-17 5-24 1-3 3-5 6-6zM327 614l-4 1c-5 2-6 10-2 14 3 3 6 3 10 2s7-7 5-11c-1-4-5-6-9-6zm1670 0c-5 0-9 2-9 6-2 4 1 10 6 11 3 1 7 1 9-2 4-4 3-12-2-14l-4-1zm-1670 4l4 1c2 2 2 7-1 8-4 2-9-3-6-7 0-1 1-2 3-2zm1670 0l4 2c2 4-2 9-6 7-3-1-4-6-2-8l4-1zm-1651 0c-2 1-5 0-6 2-2 3 0 7 3 7h1638c3 0 5-4 3-7-1-2-3-1-5-2H817l-2 1h-28l-2-1zm1769 6h-11c-6 2-12 4-17 9-2 1-4 4-3 7s5 5 8 5c8 2 16-2 24-4l22-6 8-1c-9-6-20-9-31-10zm4 4l23 5c-12-1-24 4-35 6-6 2-13 3-18 0 1-3 3-5 6-6 7-5 16-6 24-5z"/>
</svg>
