<svg width="147.84" height="40.06" viewBox="0 0 39.12 10.6" xmlns="http://www.w3.org/2000/svg" xmlns:xlink="http://www.w3.org/1999/xlink">
  <defs>
    <linearGradient id="a" x1="21.41" x2="21.84" y1="46.56" y2="47.84" gradientTransform="translate(-341.96 -1204.4) scale(31.25)" gradientUnits="userSpaceOnUse" xlink:href="#linearGradient17879">
      <stop stop-color="#828282" offset="0"/>
      <stop stop-color="#929292" stop-opacity=".35" offset="1"/>
    </linearGradient>
    <linearGradient id="b" x1="21.59" x2="21.59" y1="46.62" y2="47.78" gradientTransform="translate(-341.96 -1204.4) scale(31.25)" gradientUnits="userSpaceOnUse">
      <stop stop-color="#870083" offset="0"/>
      <stop stop-color="#fe9aff" offset="1"/>
    </linearGradient>
    <linearGradient id="c" x1="21.59" x2="21.59" y1="47.92" y2="46.77" gradientTransform="matrix(29.004 0 0 19.969 -293.33 -677.04)" gradientUnits="userSpaceOnUse">
      <stop stop-color="#fff" stop-opacity="0" offset="0"/>
      <stop stop-color="#fff" stop-opacity=".87" offset="1"/>
    </linearGradient>
    <filter id="d" x="-.05" y="-.22" width="1.11" height="1.55" color-interpolation-filters="sRGB">
      <feFlood flood-color="#000" flood-opacity=".5" result="flood"/>
      <feComposite in="flood" in2="SourceGraphic" operator="in" result="composite1"/>
      <feGaussianBlur in="composite1" result="blur" stdDeviation="2"/>
      <feOffset dx="1.2" dy="2.4" result="offset"/>
      <feComposite in="SourceGraphic" in2="offset" result="composite2"/>
    </filter>
  </defs>
  <g stroke-width="31.25">
    <path d="M308.44 250.65c-11.4 0-20.53 8.34-20.53 19.53s9.34 20.53 20.53 20.53h107.78c11.19 0 19.53-9.12 19.53-20.53s-8.1-19.53-19.53-19.53z" fill="url(#a)" transform="translate(-76.18 -66.32) scale(.26458)"/>
    <path d="M308.44 252.62c-10.22 0-18.56 7.69-18.56 17.56s8.69 18.56 18.56 18.56h107.78c9.88 0 17.6-8.34 17.6-18.56 0-10.19-7.38-17.56-17.6-17.56z" fill="url(#b)" transform="translate(-76.18 -66.32) scale(.26458)"/>
    <path d="M310.31 254.02c-9.47 0-17.22 4.9-17.22 11.22s8.06 11.87 17.22 11.87h104.22c9.16 0 16.31-5.34 16.31-11.87s-6.84-11.22-16.31-11.22z" fill="url(#c)" transform="translate(-76.18 -66.32) scale(.26458)"/>
  </g>
  <g transform="matrix(.2727 0 0 .2567 -.76 -1.34)" fill="#0044be" filter="url(#d)" stroke-width=".56" aria-label="Play game">
    <path d="M33.24 25.46q.53.14 1.35.14 2.14 0 3.25-1.06 1.12-1.07 1.12-3.1 0-1.46-.82-2.24-.82-.8-2.45-.8-.6 0-1.11.12zm-5.02 6.94l1.37-.4q.32-.1.37-.34l.2-.98.23-1.2 1.7-8.85.18-1 .13-.82q.06-.27-.18-.37l-1.32-.42.06-.47q1.39.04 2.4.04.4 0 1.49-.04t1.54-.05q2.26 0 3.55.95 1.3.94 1.3 2.71 0 2.6-1.85 3.97-1.83 1.37-4.7 1.37-.83 0-1.62-.13l-.6 3.11-.38 2.14q-.04.27.21.34l1.46.44-.07.47q-1.6-.03-2.87-.03-1.29 0-2.64.03zM43.15 17.57v-.38q1.9-.36 3.8-.8l.09.13q-.2.82-.48 2.1l-.6 2.8L44 31.05q-.04.2-.04.39 0 .44.37.58.37.13 1.23.13l-.04.42q-1.4.46-2.22.46-.63 0-.97-.3-.34-.32-.34-.97l.01-.34q.02-.2.08-.43l2.7-13.14zM57.38 22.68L57.03 24q-.21.82-.77 3.53l-.68 3.4q-.05.22-.05.43 0 .47.34.65.35.16 1.24.14l-.03.42q-1.42.46-2.1.46-.62 0-1-.37-.37-.37-.37-1.08l.01-.35q-1.1.96-1.87 1.4-.77.45-1.09.45-1.4 0-2.2-1.07-.81-1.09-.81-2.68 0-2.85 1.71-4.8 1.72-1.95 4.34-1.95 1 0 2.3.4.54-.11 1.26-.39zm-2.29 1.21q-.8-.46-1.56-.46-1.6 0-2.72 1.69-1.11 1.68-1.11 3.7 0 1.18.43 1.98.43.81 1.22.81.25 0 .86-.3.61-.29 1.56-1zM66.65 23.2q1.08-.29 2.12-.6l.1.08q-.44 1.56-1.04 3-.6 1.45-1.24 2.73T65.3 30.8l-1.15 1.98q-.77 1.21-1.3 2.38t-.92 2.1q-.16.38-.32.58-.15.2-.38.31-.23.11-.56.15-.31.03-.77.03-1.16 0-2.06-.11l-.05-.42q.62-.07 1.13-.27.5-.18.87-.49.22-.17.47-.46.26-.28.62-.76.37-.48.85-1.2.48-.71 1.15-1.77l-.41-.1q-.08-.6-.23-1.39t-.36-1.64L61.44 28q-.23-.86-.47-1.6-.23-.74-.45-1.3-.2-.56-.37-.81-.17-.26-.36-.4-.19-.16-.41-.23-.23-.06-.5-.08-.28-.04-.6-.05l.04-.41q1.43-.5 2.34-.5.44 0 .71.16.29.15.44.43.15.28.35.8.2.5.41 1.14.21.64.42 1.4l.4 1.56q.18.78.32 1.57t.23 1.48q1.12-1.9 1.77-3.87.65-1.97.94-4.09zM81.2 31.29q-1.1.87-1.88 1.27-.77.4-1.1.4-1.36 0-2.21-1.04-.85-1.06-.85-2.63 0-2.85 1.72-4.78 1.74-1.93 4.4-1.93 1 0 2.32.4.26-.05.58-.15l.68-.24.11.09-.15.59-.18.74-.3 1.28q-.2.88-.48 2.24l-.63 3.08q-.42 2-.99 3.45-.57 1.44-1.3 2.38-.75.94-1.68 1.38-.93.44-2.07.44-1.35 0-3.14-.55.17-1.03.5-2.08l.08-.03q2.26 1.5 3.38 1.5.56 0 .98-.28.42-.26.77-.84.36-.57.66-1.48.3-.91.57-2.21zm1.51-7.4q-.77-.46-1.58-.46-1.64 0-2.79 1.66-1.13 1.65-1.13 3.65 0 1.2.44 1.98.43.77 1.25.77.7 0 2.5-1.18zM96.24 22.68L95.9 24q-.2.82-.76 3.53l-.69 3.4q-.04.22-.04.43 0 .47.34.65.34.16 1.24.14l-.03.42q-1.42.46-2.1.46-.62 0-1-.37t-.38-1.08l.02-.35q-1.1.96-1.87 1.4-.78.45-1.1.45-1.4 0-2.2-1.07-.8-1.09-.8-2.68 0-2.85 1.7-4.8 1.72-1.95 4.34-1.95 1 0 2.3.4.54-.11 1.26-.39zm-2.28 1.21q-.8-.46-1.56-.46-1.6 0-2.72 1.69-1.11 1.68-1.11 3.7 0 1.18.42 1.98.44.81 1.22.81.26 0 .87-.3.6-.29 1.56-1zM98.28 32.9l1.7-8.25q.1-.5.1-.6 0-.27-.27-.4-.26-.13-1.27-.13l.03-.41q1.45-.5 2.32-.5.55 0 .86.27.31.26.31.74v.14l-.02.17q2.09-1.35 3.75-1.35 1.84 0 2.25 1.55 2.23-1.55 4.04-1.55 1.14 0 1.74.61.61.6.61 1.66 0 .54-.12 1l-1.12 5.2-.03.21-.01.18q0 .44.36.58.36.13 1.22.13l-.03.42q-1.35.46-2.17.46-.64 0-.99-.3-.35-.32-.35-.97l.02-.34q.02-.2.07-.43l1.04-4.73q.1-.47.1-.87 0-.71-.36-1.07-.33-.37-1.13-.37-1.32 0-2.82.94 0 .48-.1.97l-1.42 6.92-1.96.11 1.36-6.63q.11-.47.11-.87 0-.71-.33-1.07-.32-.37-1.13-.37-1.28 0-2.77.9l-1.62 7.93zM118.77 28.07q-.04.39-.04.74 0 1.4.68 2.17.7.75 1.95.75 1.43 0 2.92-.8l.24.38q-.74.8-1.9 1.29-1.14.48-2.28.48-1.65 0-2.66-1.1-1-1.12-1-2.88 0-.87.2-1.7.22-.81.6-1.53.4-.73.93-1.33.55-.6 1.21-1.04.68-.44 1.45-.68.78-.24 1.63-.24 1.34 0 2.05.58.73.57.73 1.5-.02 1.66-2.05 2.5-2.02.83-4.66.92zm.12-.8q2.33-.15 3.5-.81 1.16-.67 1.16-1.72 0-.57-.35-.9t-.95-.33q-1.11 0-2.04 1.02-.92 1-1.32 2.75z"/>
  </g>
</svg>
